<svg width="350" height="350" viewBox="0 0 350 350" fill="none" xmlns="http://www.w3.org/2000/svg">
<rect width="350" height="350" rx="175" fill="white"/>
<path d="M157.813 49C179.012 85.6698 170.345 70.6411 196.195 115.438L183.468 122.782L226.058 137.766C231.15 110.594 229.481 120.628 234.377 93.4067L221.65 100.75L191.787 49H157.813ZM151.98 58.7917L112.966 126.205L138.421 140.892L168.972 88.1666L151.98 58.7917ZM246.129 143.149L220.674 157.837L248.089 205.667H282.36L246.129 143.149ZM118.35 146.276L75.7598 161.26L88.487 168.604L62.0476 214.378C62.0476 215.895 60.383 212.178 76.7351 244.833C79.183 244.833 74.1384 252.273 113.942 183.291L126.669 190.635C121.577 163.463 123.441 173.497 118.35 146.276ZM213.818 200.771L179.548 230.146L213.818 259.521V244.833H272.568L287.256 215.458H213.818V200.771ZM106.693 215.458L89.711 244.833H164.86V229.849V215.458H106.693Z" fill="#005F56"/>
<path d="M174.571 146.19C162.21 146.19 151.019 151.2 142.919 159.3L150.844 167.225C156.923 161.146 165.315 157.381 174.571 157.381C183.828 157.381 192.22 161.146 198.299 167.225L206.224 159.3C198.124 151.2 186.932 146.19 174.571 146.19ZM174.571 161.857C166.55 161.857 159.277 165.121 154.009 170.39L161.917 178.297C165.157 175.054 169.634 173.048 174.571 173.048C179.509 173.048 183.985 175.054 187.226 178.297L195.134 170.39C189.865 165.121 182.593 161.857 174.571 161.857ZM174.571 177.524C170.87 177.524 167.514 179.032 165.081 181.462L174.571 190.952L184.061 181.462C181.629 179.032 178.273 177.524 174.571 177.524Z" fill="#005F56"/>
</svg>
